<?xml version="1.0" encoding="UTF-8" standalone="no"?>
<!-- Created with Inkscape (http://www.inkscape.org/) -->

<svg
   width="100.09274mm"
   height="92.604172mm"
   viewBox="0 0 100.09275 92.604169"
   version="1.1"
   id="svg5"
   xml:space="preserve"
   sodipodi:docname="laurel.svg"
   inkscape:version="1.2.2 (732a01da63, 2022-12-09)"
   xmlns:inkscape="http://www.inkscape.org/namespaces/inkscape"
   xmlns:sodipodi="http://sodipodi.sourceforge.net/DTD/sodipodi-0.dtd"
   xmlns="http://www.w3.org/2000/svg"
   xmlns:svg="http://www.w3.org/2000/svg"><sodipodi:namedview
     id="namedview7"
     pagecolor="#ffffff"
     bordercolor="#000000"
     borderopacity="0.25"
     inkscape:showpageshadow="2"
     inkscape:pageopacity="0.0"
     inkscape:pagecheckerboard="0"
     inkscape:deskcolor="#d1d1d1"
     inkscape:document-units="mm"
     showgrid="false"
     inkscape:zoom="0.914906"
     inkscape:cx="98.917265"
     inkscape:cy="232.2643"
     inkscape:window-width="1649"
     inkscape:window-height="1259"
     inkscape:window-x="4495"
     inkscape:window-y="453"
     inkscape:window-maximized="0"
     inkscape:current-layer="layer1" /><defs
     id="defs2" /><g
     inkscape:label="Layer 1"
     inkscape:groupmode="layer"
     id="layer1"
     transform="translate(-36.467413,-62.995335)"><path
       style="fill:#000000;stroke-width:0.180763"
       d="m 71.631098,155.58932 c -0.09942,-0.0262 -0.490653,-0.0997 -0.869406,-0.16315 -0.866538,-0.14521 -2.018767,-1.15918 -2.3059,-2.0292 -0.921009,-2.79068 2.951149,-10.09293 8.477644,-15.98741 0.712536,-0.76 1.295525,-1.42782 1.295525,-1.48406 0,-0.0562 -1.003792,0.57233 -2.230649,1.39682 -4.546226,3.05521 -8.764114,4.16106 -13.211176,3.46371 -4.950513,-0.77628 -9.684281,-3.49894 -9.684281,-5.56998 0,-1.33479 3.872032,-4.96571 6.055574,-5.6785 0.425498,-0.13889 -0.04166,-0.20058 -2.169161,-0.28641 -5.388968,-0.21742 -9.509495,-1.91019 -12.849733,-5.27883 -2.824691,-2.84872 -4.818877,-6.97546 -4.057899,-8.39736 0.522301,-0.97593 3.926494,-1.91507 6.45978,-1.78211 0.825037,0.0433 1.500065,0.0545 1.500065,0.0249 0,-0.0296 -0.60164,-0.3513 -1.336977,-0.7149 -4.584318,-2.26677 -8.227767,-6.75316 -9.599094,-11.81991 -0.502767,-1.857616 -0.787128,-5.390451 -0.557264,-6.923306 0.185745,-1.238635 0.831911,-1.934099 1.797005,-1.934099 1.451038,0 5.205138,1.31801 7.026478,2.466893 0.370849,0.233927 0.72067,0.425319 0.777377,0.425319 0.05671,0 -0.257328,-0.508396 -0.697863,-1.129767 -3.759487,-5.302781 -4.436959,-13.012507 -1.655918,-18.844584 1.376794,-2.887258 2.665487,-3.022573 5.478693,-0.575275 1.338414,1.164324 2.804239,2.952573 3.667403,4.47408 1.045249,1.842461 0.996305,1.841983 1.134524,0.011 0.243309,-3.223052 1.332976,-6.412353 3.097959,-9.067262 2.778242,-4.179074 8.808557,-7.998703 11.117914,-7.042134 2.35508,0.975507 2.083588,9.05644 -0.475073,14.14044 -1.737448,3.452265 -5.262049,6.850339 -8.971496,8.649424 -0.964682,0.467876 -1.147629,0.854225 -1.661722,3.509247 -2.216428,11.446694 1.151029,22.495564 9.23219,30.291494 4.293209,4.14168 9.437925,7.07977 17.757606,10.14118 l 2.431455,0.89471 2.997486,-1.11868 c 7.916603,-2.95454 12.836226,-5.90401 17.167386,-10.29237 4.71318,-4.77541 7.4146,-9.81008 8.82619,-16.44946 0.43505,-2.0463 0.48106,-2.63484 0.48746,-6.236335 0.007,-4.077427 -0.31162,-6.911608 -1.0581,-9.404834 -0.25225,-0.842467 -0.34853,-0.946184 -1.31644,-1.417975 -7.01808,-3.420865 -11.45478,-10.847251 -11.02409,-18.452704 0.22733,-4.014443 1.26262,-5.026413 4.1559,-4.062288 4.57177,1.523448 8.73924,5.660567 10.63908,10.561613 0.66094,1.705008 1.23469,4.317989 1.23803,5.638184 0.001,0.51609 0.0721,0.981431 0.1573,1.034092 0.0852,0.05267 0.3834,-0.32892 0.66265,-0.847961 0.83735,-1.55635 1.96963,-3.042885 3.28452,-4.312134 3.21577,-3.104154 4.82674,-3.128223 6.2828,-0.09387 1.2473,2.599318 1.82989,5.744559 1.67227,9.028102 -0.17232,3.589984 -1.22222,6.711392 -3.28687,9.772067 -0.45944,0.681076 -0.77014,1.206088 -0.69045,1.166681 3.35112,-1.656945 4.54111,-2.180065 5.65454,-2.485728 1.48511,-0.4077 2.55119,-0.471614 3.08662,-0.185059 1.57031,0.840398 1.2779,6.868054 -0.54566,11.248449 -1.56223,3.75265 -5.08292,7.43823 -8.99962,9.42114 -0.52195,0.26425 -0.94901,0.5089 -0.94901,0.54365 0,0.0348 0.54908,0.0243 1.22016,-0.0233 1.39484,-0.0989 3.94635,0.32174 5.19279,0.85603 1.06421,0.45618 1.59173,1.27402 1.43654,2.22715 -0.52531,3.22646 -3.81576,7.47585 -7.47824,9.65764 -2.88405,1.71807 -5.76459,2.54211 -9.45047,2.7035 l -2.48137,0.10865 1.34654,0.78823 c 1.56531,0.9163 3.54477,2.69664 4.27893,3.8485 1.06891,1.67704 0.5148,2.81137 -2.13482,4.37016 -5.0754,2.98591 -10.58552,3.42455 -15.98386,1.27242 -1.615047,-0.64387 -3.15539,-1.50276 -5.267292,-2.93701 -0.865655,-0.5879 -1.627704,-1.0689 -1.693434,-1.0689 -0.06572,0 0.603539,0.75633 1.487279,1.68074 3.209387,3.35708 5.528317,6.55281 7.084217,9.76282 1.79771,3.70891 2.13725,5.61549 1.24118,6.96954 -0.64322,0.97198 -1.63597,1.47087 -2.92689,1.47087 -0.923799,0 -1.069922,-0.0594 -1.79947,-0.73191 -0.651131,-0.60019 -0.928722,-1.08002 -1.542496,-2.66626 -1.721978,-4.45026 -4.457075,-8.42131 -7.879327,-11.43987 -1.717647,-1.51503 -2.906388,-2.33448 -3.386548,-2.33448 -0.486042,0 -2.460696,1.44048 -4.074872,2.97255 -3.13273,2.97341 -5.420542,6.45599 -7.249551,11.03554 -0.617463,1.54602 -1.238744,2.49286 -1.850618,2.82032 -0.491631,0.26311 -1.273732,0.48229 -1.50395,0.42147 z"
       id="path4540" /></g></svg>
