<?xml version="1.0" encoding="UTF-8" standalone="no"?>
<!-- Created with Inkscape (http://www.inkscape.org/) -->

<svg
   width="86.698944mm"
   height="92.604156mm"
   viewBox="0 0 86.69895 92.604154"
   version="1.1"
   id="svg5"
   xml:space="preserve"
   sodipodi:docname="trident.svg"
   inkscape:version="1.2.2 (732a01da63, 2022-12-09)"
   xmlns:inkscape="http://www.inkscape.org/namespaces/inkscape"
   xmlns:sodipodi="http://sodipodi.sourceforge.net/DTD/sodipodi-0.dtd"
   xmlns="http://www.w3.org/2000/svg"
   xmlns:svg="http://www.w3.org/2000/svg"><sodipodi:namedview
     id="namedview7"
     pagecolor="#ffffff"
     bordercolor="#000000"
     borderopacity="0.25"
     inkscape:showpageshadow="2"
     inkscape:pageopacity="0.0"
     inkscape:pagecheckerboard="0"
     inkscape:deskcolor="#d1d1d1"
     inkscape:document-units="mm"
     showgrid="false"
     inkscape:zoom="0.914906"
     inkscape:cx="198.38103"
     inkscape:cy="985.34712"
     inkscape:window-width="1649"
     inkscape:window-height="1259"
     inkscape:window-x="4495"
     inkscape:window-y="453"
     inkscape:window-maximized="0"
     inkscape:current-layer="layer1" /><defs
     id="defs2" /><g
     inkscape:label="Layer 1"
     inkscape:groupmode="layer"
     id="layer1"
     transform="translate(-10.083226,-25.739591)"><path
       style="fill:#000000;stroke-width:0.144281"
       d="m 25.187317,118.00667 c -0.244355,-0.24436 -0.384346,-0.63149 -0.50869,-1.40675 -0.253102,-1.57801 -0.389916,-1.94515 -1.278846,-3.43172 -1.089139,-1.82139 -1.09075,-1.89308 -0.182814,-8.13277 1.113598,-7.653078 1.161239,-7.797762 3.166344,-9.616141 1.528669,-1.386314 2.531045,-2.790481 2.930272,-4.104852 0.462598,-1.523003 0.32154,-2.70382 -0.674374,-5.6453 -0.943548,-2.786817 -1.316009,-4.40092 -1.449449,-6.281367 -0.116368,-1.63987 0.113284,-3.749661 0.520647,-4.78315 0.159789,-0.405388 0.256102,-0.771491 0.214026,-0.813568 -0.22014,-0.220139 -1.356845,0.341303 -1.95402,0.965139 -1.239721,1.295055 -1.601319,2.955254 -1.857256,8.527182 -0.153034,3.331632 -0.381025,4.597873 -1.102427,6.12279 -1.551828,3.280296 -5.109695,5.427789 -9.387452,5.666169 -1.697517,0.0946 -2.51387,-0.08925 -2.51387,-0.566137 0,-0.163529 0.35056,-0.759064 0.779021,-1.323411 1.807168,-2.380317 2.57004,-4.866261 2.971454,-9.682991 0.475441,-5.705012 1.551228,-8.837266 3.91651,-11.403295 0.901962,-0.978516 2.560155,-2.021809 3.916734,-2.464323 1.030578,-0.336165 1.420496,-0.386345 2.988723,-0.384622 1.134619,0.0011 2.194982,0.08939 2.858995,0.237665 1.496672,0.334203 1.709493,0.306991 2.547543,-0.325745 1.319809,-0.996467 3.075655,-1.741865 5.198157,-2.206737 0.587873,-0.12876 2.034854,-0.189606 4.508828,-0.189606 2.003721,0 3.643122,-0.01058 3.643106,-0.0235 -7.1e-5,-0.07286 -3.5141,-1.111742 -5.049875,-1.492929 -4.7591,-1.181226 -7.610001,-2.170773 -9.515573,-3.30285 -2.42359,-1.439831 -4.027835,-3.668015 -3.026661,-4.203827 0.164355,-0.08796 1.010656,-0.19748 1.880667,-0.24338 0.870011,-0.04591 1.615881,-0.138532 1.657487,-0.205851 0.04161,-0.06732 -0.171658,-0.123536 -0.473922,-0.124921 -1.788041,-0.0082 -5.419202,-0.922534 -7.022021,-1.768172 -2.144759,-1.131553 -4.210695,-3.528491 -4.734414,-5.492949 -0.295559,-1.108623 -0.185082,-1.146517 3.054953,-1.047848 2.654668,0.08084 2.663707,0.08007 1.659239,-0.140958 -4.453135,-0.979907 -7.645884,-3.106624 -9.592229,-6.389461 -0.710271,-1.197994 -1.23779,-2.590072 -1.455722,-3.84153 -0.146562,-0.841619 -0.13846,-0.996107 0.06279,-1.197361 0.211896,-0.211894 0.288124,-0.211845 0.91896,5.45e-4 0.378343,0.127413 2.043539,0.694656 3.700434,1.260548 2.965183,1.012707 3.939053,1.227692 2.711349,0.598528 -2.481903,-1.271901 -5.61587,-4.081802 -7.045927,-6.317337 -1.538674,-2.405336 -2.485503,-5.777741 -1.919219,-6.835851 0.270486,-0.505404 0.769944,-0.306298 2.601284,1.036996 3.520063,2.581974 6.078773,4.144742 9.513294,5.810372 5.762298,2.794528 11.060147,4.480619 18.179481,5.78579 1.547422,0.283684 3.293427,0.645758 3.880012,0.804609 4.38617,1.187813 6.751158,3.25779 7.684429,6.725849 0.267243,0.993065 0.317129,1.729138 0.418666,6.177262 0.130053,5.697339 0.294679,6.904244 1.202527,8.81591 0.455344,0.958825 1.678341,2.510195 1.978871,2.510195 0.06585,0 0.356309,-0.23658 0.645463,-0.525734 0.659299,-0.659298 1.28699,-1.971553 1.574427,-3.291486 0.214151,-0.983401 0.501816,-3.6854 0.39236,-3.6854 -0.02967,0 -0.572969,0.401538 -1.207374,0.892306 -0.923362,0.714305 -1.179584,0.851021 -1.284427,0.685338 -0.194983,-0.308131 -0.169075,-0.551081 0.216523,-2.030764 0.842236,-3.231953 2.029951,-6.03639 3.504959,-8.275922 0.758143,-1.151097 2.232934,-2.947047 2.527591,-3.078005 0.282877,-0.125723 0.04673,-0.289067 -0.546566,-0.378035 -0.770357,-0.115525 -2.187787,-0.584906 -2.467641,-0.817168 -0.107831,-0.08949 -0.196058,-0.247099 -0.196058,-0.350245 0,-0.103141 0.803026,-0.577954 1.784508,-1.055138 1.404893,-0.683047 2.189914,-1.192493 3.690319,-2.394866 3.892937,-3.119673 6.433942,-4.155376 10.25187,-4.178617 2.422682,-0.01472 3.996209,0.344896 6.022359,1.376471 0.754603,0.384192 1.445061,0.653867 1.534357,0.599275 0.08929,-0.05459 0.448817,-0.317368 0.798948,-0.583946 1.346337,-1.025058 3.455784,-1.795181 4.048423,-1.478009 0.160983,0.08615 0.292693,0.256904 0.292693,0.379453 0,0.287654 -0.618569,1.839003 -1.308907,3.282684 l -0.542731,1.135005 0.485086,0.485092 c 1.092372,1.092372 1.804664,2.785628 2.284548,5.43081 l 0.35282,1.9448 1.950525,3.828748 c 1.247063,2.447892 1.986124,4.066123 2.049234,4.486944 0.24194,1.6134 -1.04938,3.565851 -2.67836,4.049606 -2.046577,0.607766 -3.555407,0.01696 -5.164903,-2.022436 -1.798371,-2.278714 -1.699309,-2.185175 -2.584788,-2.44076 -1.270615,-0.366747 -2.439124,-1.053491 -3.163588,-1.859267 l -0.656081,-0.72972 0.06561,2.305657 c 0.08045,2.827574 0.260253,3.490575 2.139238,7.888192 0.722479,1.690906 1.471247,3.658706 1.663935,4.372901 0.522222,1.935612 0.724921,4.30289 0.525521,6.137541 -0.0897,0.82538 -0.145828,1.517959 -0.124719,1.539068 0.03735,0.03735 4.851161,-1.766225 6.438942,-2.412496 2.248138,-0.915062 3.6156,-1.085844 4.614401,-0.57629 0.633909,0.323394 1.178467,0.982404 1.431788,1.73271 0.342508,1.014474 1.768777,10.152497 1.71291,10.974529 -0.08397,1.235648 -1.507205,3.977188 -3.515638,6.772109 -1.307641,1.819698 -1.820315,2.308504 -2.421226,2.308504 -0.441434,0 -0.572762,-0.0814 -0.872926,-0.541058 -0.453627,-0.694662 -1.510592,-3.487232 -1.618859,-4.277139 -0.07673,-0.559762 -0.04357,-0.641887 0.425314,-1.053573 0.279687,-0.245572 1.195715,-0.858552 2.035617,-1.362184 0.839901,-0.503632 1.527092,-0.995339 1.527092,-1.092678 0,-0.161484 -1.399619,-7.310226 -1.486984,-7.594952 -0.02072,-0.06751 -1.139237,0.618906 -2.485601,1.52538 -6.11966,4.120192 -7.933316,5.359336 -7.968947,5.444613 -0.04177,0.09994 1.54529,3.539904 3.83035,8.302321 1.612997,3.361738 1.631167,3.410713 3.155844,8.507542 0.594297,1.98666 1.37586,4.55355 1.736816,5.70419 0.360956,1.15065 0.721999,2.33844 0.802324,2.63954 0.112744,0.42264 0.380167,0.73952 1.17291,1.38982 1.947183,1.59733 3.780798,3.75912 4.355883,5.13549 0.275009,0.65819 0.259969,0.88078 -0.08268,1.22343 -0.271496,0.2715 -0.480936,0.28856 -3.542064,0.28856 -3.585542,0 -3.906875,-0.0643 -4.320852,-0.86486 -0.12148,-0.23491 -0.309047,-1.27185 -0.416812,-2.30429 -0.177975,-1.70505 -0.234012,-1.92415 -0.611185,-2.38953 -0.22839,-0.2818 -0.61317,-0.75743 -0.855073,-1.05696 -0.241907,-0.29953 -0.819479,-1.51438 -1.2835,-2.69967 C 80.410862,98.990888 80.39784,98.962907 78.197919,95.835824 77.332612,94.605825 75.768922,92.333388 74.723055,90.785966 73.46633,88.926568 72.742717,87.981464 72.58921,87.998979 c -0.127745,0.01456 -0.911676,0.226323 -1.742062,0.470538 -4.544137,1.336423 -10.843636,1.630697 -16.894328,0.789203 l -0.657488,-0.09144 -0.180374,0.989694 c -0.415073,2.277421 -2.225158,6.661541 -3.425508,8.296737 l -0.520859,0.709555 1.134503,1.185844 c 1.53482,1.60427 4.799978,5.237 6.058644,6.74068 2.00984,2.40108 2.778751,3.93405 3.166912,6.31381 0.234917,1.44022 0.202171,2.52808 -0.09267,3.079 -0.149133,0.27866 -0.25018,0.3027 -0.963218,0.2291 -0.960482,-0.0991 -3.5567,-1.32437 -4.894737,-2.30999 -1.071498,-0.78928 -1.186767,-1.13041 -0.843921,-2.49747 0.131634,-0.52489 0.203949,-1.09538 0.160689,-1.26774 -0.089,-0.3546 -0.833658,-1.08332 -5.951506,-5.8241 -1.994686,-1.84773 -3.798177,-3.60694 -4.007748,-3.90936 -0.681662,-0.983628 -0.645229,-1.608964 0.269005,-4.61731 1.403486,-4.618279 1.859763,-6.712441 1.166846,-5.355481 -0.794112,1.555138 -2.954562,3.87216 -5.062335,5.429213 -2.311465,1.707527 -4.353239,2.710266 -7.307513,3.588814 -1.349792,0.401404 -1.815756,0.775364 -2.246737,1.803094 -0.116472,0.27774 -0.657725,2.45279 -1.202786,4.83343 l -0.99102,4.32845 0.611454,0.49578 c 2.003396,1.62439 4.565101,5.07789 4.576028,6.16906 0.0069,0.69055 -0.378717,0.76566 -3.931097,0.76566 -3.258693,0 -3.296436,-0.003 -3.630066,-0.33713 z"
       id="path4564" /><path
       style="fill:#000000;stroke-width:0.136618"
       d="m 45.794565,295.66195 c -0.78056,-0.2757 -1.639581,-1.14312 -2.135156,-2.15603 -0.519968,-1.06278 -0.542083,-1.68089 -0.352814,-9.86082 0.08315,-3.59348 0.217085,-10.09935 0.297641,-14.45747 0.08055,-4.35813 0.19419,-10.22931 0.252528,-13.04707 0.05833,-2.81775 0.100596,-5.13068 0.09391,-5.13984 -0.0067,-0.009 -1.395408,-0.15259 -3.086062,-0.31873 -5.444026,-0.53499 -7.003939,-0.90732 -8.991584,-2.14616 -2.326907,-1.4503 -4.130559,-3.9294 -4.97023,-6.83154 l -0.30956,-1.06992 -0.04133,-13.15002 c -0.02873,-9.14209 0.0031,-13.23314 0.104643,-13.42276 0.25447,-0.47548 0.722628,-0.31978 1.798404,0.59812 1.618266,1.38078 4.000538,4.10393 5.81158,6.64315 0.562716,0.78897 1.115385,1.61208 1.228146,1.82913 0.291424,0.56093 0.0787,0.94462 -0.643717,1.16106 -0.770662,0.2309 -1.806369,1.2184 -2.173878,2.07269 -0.287774,0.66895 -0.292334,0.79592 -0.253772,7.06506 l 0.03924,6.38386 0.366146,0.78119 c 0.693204,1.47899 2.195074,2.75973 3.835125,3.27044 0.866699,0.26989 3.783372,0.70572 5.771879,0.86246 0.601118,0.0474 1.23157,0.11507 1.401001,0.1504 l 0.308056,0.0642 -0.0348,-13.55474 -0.0348,-13.55474 -1.389553,0.0373 c -1.488946,0.04 -1.957598,-0.0883 -1.957598,-0.53604 0,-0.14813 0.607954,-1.6983 1.351017,-3.44481 0.743058,-1.7465 2.01323,-4.74316 2.822599,-6.65923 0.809368,-1.91608 1.56346,-3.59136 1.675762,-3.72285 0.28055,-0.32851 0.662548,-0.2996 0.902467,0.0683 0.185686,0.28473 1.759721,3.92571 3.971882,9.18759 0.505437,1.20224 1.091844,2.5855 1.30312,3.07391 0.854426,1.97518 0.792866,2.07244 -1.290728,2.03927 l -1.514376,-0.0241 -0.0348,13.54229 c -0.02458,9.56707 0.0082,13.54229 0.111672,13.54229 0.491816,0 5.414108,-0.59531 6.259099,-0.75698 2.164372,-0.41411 3.970865,-1.70841 4.835767,-3.46468 l 0.440847,-0.89519 0.03935,-6.33231 0.03935,-6.33232 -0.326397,-0.71294 c -0.469159,-1.02478 -1.044211,-1.61215 -2.066203,-2.11045 -0.724908,-0.35346 -0.896627,-0.49848 -0.896627,-0.75728 0,-0.34436 1.577733,-2.64165 3.202908,-4.66367 2.105017,-2.61903 4.639676,-5.12319 5.18558,-5.12319 0.165244,0 0.374222,0.0738 0.464388,0.16394 0.260877,0.26088 0.233175,25.68391 -0.02948,27.04527 -0.595474,3.0865 -2.346774,5.68507 -5.008326,7.43129 -1.587988,1.04188 -2.966429,1.52197 -5.249578,1.82833 -1.396642,0.18742 -6.18382,0.68734 -6.603837,0.68964 l -0.319391,0.002 0.08729,3.85947 c 0.138109,6.10679 0.470888,19.76254 0.621746,25.5135 0.07588,2.89289 0.152598,6.79677 0.170479,8.67527 l 0.03253,3.41546 -0.423874,0.8945 c -0.547846,1.15608 -1.125733,1.80295 -1.999857,2.23854 -0.818559,0.4079 -1.748026,0.44807 -2.687773,0.11614 z"
       id="path4588" /></g></svg>
